<svg width="412" height="86" viewBox="0 0 412 86" fill="none" xmlns="http://www.w3.org/2000/svg">
<path d="M180.958 83.9304C184.772 83.9304 187.865 80.8381 187.865 77.0235C187.865 73.209 184.772 70.1167 180.958 70.1167C177.143 70.1167 174.051 73.209 174.051 77.0235C174.051 80.8381 177.143 83.9304 180.958 83.9304Z" fill="#ECECEC"/>
<path d="M171.571 28.6515H148.847C147.49 28.6515 146.391 29.7502 146.391 31.1073V42.344C146.391 49.994 140.236 56.2869 132.586 56.2869C124.952 56.2869 118.764 50.1071 118.764 42.4733V31.1073C118.764 29.7502 117.665 28.6515 116.308 28.6515H93.5843C92.2272 28.6515 91.1285 29.7502 91.1285 31.1073V42.2552C91.1285 65.1325 109.571 83.8577 132.448 83.9304C155.406 84.0031 174.035 65.4152 174.035 42.4813V31.1154C174.035 29.7582 172.936 28.6596 171.579 28.6596L171.571 28.6515Z" fill="#ECECEC"/>
<path d="M81.6448 28.6515H59.9146C58.0081 28.6515 56.4652 27.1086 56.4652 25.2022V3.45575C56.4652 2.09862 55.3665 1 54.0094 1H31.2694C29.9123 1 28.8136 2.09862 28.8136 3.45575V26.1958C28.8136 27.5529 29.9123 28.6515 31.2694 28.6515H53.0158C54.9223 28.6515 56.4652 30.1945 56.4652 32.1009V42.4733C56.4652 50.0991 50.2773 56.2869 42.6515 56.2869H17.4557C16.0986 56.2869 15 57.3855 15 58.7427V81.4665C15 82.8237 16.0986 83.9223 17.4557 83.9223H42.6515C65.545 83.9223 84.1006 65.3668 84.1006 42.4733V31.1073C84.1006 29.7502 83.002 28.6515 81.6448 28.6515Z" fill="#ECECEC"/>
<path d="M220.549 83.9304C215.379 83.9304 210.726 82.6944 206.59 80.2225C202.446 77.7506 199.158 74.4062 196.734 70.1894C194.303 65.9726 193.083 61.2792 193.083 56.1173C193.083 50.9553 194.295 46.2942 196.734 42.1582C199.166 38.0141 202.454 34.7344 206.59 32.3029C210.734 29.8714 215.387 28.6515 220.549 28.6515C224.426 28.6515 228.069 29.3705 231.487 30.8165C234.904 32.2625 237.828 34.3143 240.259 36.9721L236.382 40.8496C234.403 38.725 232.068 37.069 229.37 35.8896C226.672 34.7101 223.732 34.1205 220.541 34.1205C216.437 34.1205 212.769 35.0898 209.538 37.0286C206.307 38.9673 203.746 41.5685 201.848 44.8321C199.949 48.1037 198.996 51.8601 198.996 56.1173C198.996 60.3745 199.941 64.1712 201.848 67.5156C203.746 70.8599 206.307 73.5176 209.538 75.4968C212.769 77.4759 216.437 78.4615 220.541 78.4615C223.732 78.4615 226.712 77.8718 229.491 76.6924C232.262 75.5129 234.637 73.8246 236.616 71.6193L240.494 75.4968C237.989 78.1545 235.001 80.2306 231.543 81.7089C228.086 83.1872 224.418 83.9304 220.541 83.9304H220.549Z" fill="#ECECEC"/>
<path d="M275.828 83.9304C270.658 83.9304 266.005 82.6944 261.869 80.2225C257.724 77.7506 254.445 74.4062 252.013 70.1894C249.582 65.9726 248.362 61.2792 248.362 56.1173C248.362 50.9553 249.574 46.2942 252.013 42.1582C254.445 38.0141 257.733 34.7344 261.869 32.3029C266.013 29.8713 270.666 28.6515 275.828 28.6515C280.99 28.6515 285.529 29.8713 289.674 32.3029C293.818 34.7344 297.097 38.0222 299.529 42.1582C301.96 46.3023 303.172 50.9553 303.172 56.1173C303.172 61.2792 301.952 66.0696 299.529 70.246C297.097 74.4224 293.81 77.7506 289.674 80.2225C285.529 82.6944 280.917 83.9304 275.828 83.9304ZM275.828 78.4615C279.851 78.4615 283.486 77.4759 286.709 75.4968C289.94 73.5257 292.485 70.8438 294.343 67.459C296.201 64.0823 297.138 60.2614 297.138 56.0042C297.138 51.747 296.209 48.1037 294.343 44.8321C292.477 41.5685 289.932 38.9593 286.709 37.0286C283.478 35.0898 279.851 34.1205 275.828 34.1205C271.805 34.1205 268.056 35.0898 264.825 37.0286C261.594 38.9673 259.033 41.5685 257.135 44.8321C255.236 48.1037 254.283 51.8601 254.283 56.1173C254.283 60.3745 255.228 64.1712 257.135 67.5156C259.033 70.8599 261.594 73.5176 264.825 75.4968C268.056 77.4759 271.724 78.4615 275.828 78.4615Z" fill="#ECECEC"/>
<path d="M316.857 82.7914V29.7906H322.673V82.7914H316.857ZM354.016 82.7914V49.8567C354.016 45.0663 352.594 41.2373 349.743 38.3453C346.891 35.4614 343.264 34.0154 338.861 34.0154C335.897 34.0154 333.199 34.6617 330.767 35.9542C328.336 37.2467 326.381 39.0724 324.894 41.4231C323.416 43.7819 322.673 46.5123 322.673 49.6305L319.708 48.9439C319.708 44.8402 320.597 41.2696 322.39 38.2322C324.175 35.1949 326.607 32.836 329.685 31.1638C332.762 29.4917 336.196 28.6596 340.001 28.6596C343.805 28.6596 347.182 29.4997 350.147 31.1638C353.111 32.836 355.462 35.1949 357.215 38.2322C358.96 41.2696 359.84 44.8402 359.84 48.9439V82.7914H354.024H354.016ZM391.176 82.7914V49.8567C391.176 45.0663 389.754 41.2373 386.902 38.3453C384.051 35.4614 380.424 34.0154 376.021 34.0154C373.056 34.0154 370.342 34.6617 367.87 35.9542C365.398 37.2467 363.443 39.0724 361.997 41.4231C360.551 43.7819 359.832 46.5123 359.832 49.6305L356.302 48.9439C356.375 44.7675 357.344 41.1727 359.21 38.1757C361.068 35.1787 363.556 32.836 366.675 31.1638C369.793 29.4917 373.242 28.6596 377.047 28.6596C380.852 28.6596 384.228 29.4997 387.193 31.1638C390.158 32.836 392.533 35.211 394.318 38.2888C396.103 41.3665 397 44.9533 397 49.057V82.7914H391.184H391.176Z" fill="#ECECEC"/>
</svg>
