<svg width="440" height="760" viewBox="0 0 440 760" fill="none" xmlns="http://www.w3.org/2000/svg">
  <rect width="440" height="760" rx="44" fill="#0F1012" stroke="rgba(255,255,255,0.24)"/>
  <rect x="162" y="18" width="116" height="10" rx="5" fill="rgba(255,255,255,0.2)"/>
  <circle cx="52" cy="64" r="12" fill="rgba(255,255,255,0.08)"/>
  <rect x="76" y="48" width="196" height="32" rx="12" fill="rgba(255,255,255,0.06)"/>
  <rect x="288" y="48" width="106" height="32" rx="12" fill="rgba(41,182,246,0.12)"/>
  <text x="315" y="69" fill="#D9F8FF" font-family="Arial, Helvetica, sans-serif" font-size="16" font-weight="700">交易终端</text>
  <rect x="28" y="106" width="384" height="132" rx="20" fill="rgba(255,255,255,0.03)" stroke="rgba(255,255,255,0.08)"/>
  <text x="48" y="142" fill="#98A4AE" font-family="Arial, Helvetica, sans-serif" font-size="18">现货与永续市场</text>
  <text x="48" y="192" fill="#F4F7FB" font-family="Arial, Helvetica, sans-serif" font-size="40" font-weight="700">70,995.20</text>
  <text x="274" y="192" fill="#F4F7FB" font-family="Arial, Helvetica, sans-serif" font-size="20" font-weight="700">USDT</text>
  <text x="48" y="220" fill="#35C5FF" font-family="Arial, Helvetica, sans-serif" font-size="16" font-weight="700">BTCUSDT 指数 +0.42%</text>
  <rect x="306" y="132" width="82" height="36" rx="10" fill="#F3F4F6"/>
  <text x="329" y="156" fill="#0C0E12" font-family="Arial, Helvetica, sans-serif" font-size="16" font-weight="700">开仓</text>
  <rect x="28" y="266" width="184" height="104" rx="18" fill="rgba(37,211,102,0.09)" stroke="rgba(255,255,255,0.08)"/>
  <rect x="228" y="266" width="184" height="104" rx="18" fill="rgba(41,182,246,0.08)" stroke="rgba(255,255,255,0.08)"/>
  <rect x="28" y="386" width="184" height="132" rx="18" fill="rgba(255,255,255,0.03)" stroke="rgba(255,255,255,0.08)"/>
  <rect x="228" y="386" width="184" height="132" rx="18" fill="rgba(255,255,255,0.03)" stroke="rgba(255,255,255,0.08)"/>
  <text x="48" y="302" fill="#98A4AE" font-family="Arial, Helvetica, sans-serif" font-size="18">现货</text>
  <text x="248" y="302" fill="#98A4AE" font-family="Arial, Helvetica, sans-serif" font-size="18">USDT 永续</text>
  <text x="48" y="422" fill="#98A4AE" font-family="Arial, Helvetica, sans-serif" font-size="18">买卖盘</text>
  <text x="248" y="422" fill="#98A4AE" font-family="Arial, Helvetica, sans-serif" font-size="18">当前仓位</text>
  <path d="M48 338L82 330L116 300L150 314L184 286" stroke="#35C5FF" stroke-width="4" stroke-linecap="round"/>
  <path d="M248 338L282 332L316 308L350 296L384 304" stroke="#35C5FF" stroke-width="4" stroke-linecap="round"/>
  <rect x="48" y="438" width="64" height="16" rx="8" fill="rgba(14,203,129,0.14)"/>
  <rect x="48" y="462" width="92" height="16" rx="8" fill="rgba(14,203,129,0.1)"/>
  <rect x="48" y="486" width="118" height="16" rx="8" fill="rgba(14,203,129,0.08)"/>
  <rect x="120" y="438" width="64" height="16" rx="8" fill="rgba(246,70,93,0.12)"/>
  <rect x="148" y="462" width="36" height="16" rx="8" fill="rgba(246,70,93,0.10)"/>
  <rect x="172" y="486" width="12" height="16" rx="6" fill="rgba(246,70,93,0.08)"/>
  <text x="48" y="450" fill="#0ECB81" font-family="Arial, Helvetica, sans-serif" font-size="12" font-weight="700">70,994.8</text>
  <text x="48" y="474" fill="#0ECB81" font-family="Arial, Helvetica, sans-serif" font-size="12" font-weight="700">70,993.6</text>
  <text x="48" y="498" fill="#0ECB81" font-family="Arial, Helvetica, sans-serif" font-size="12" font-weight="700">70,992.4</text>
  <text x="136" y="450" fill="#F6465D" font-family="Arial, Helvetica, sans-serif" font-size="12" font-weight="700">70,996.1</text>
  <text x="136" y="474" fill="#F6465D" font-family="Arial, Helvetica, sans-serif" font-size="12" font-weight="700">70,997.5</text>
  <text x="136" y="498" fill="#F6465D" font-family="Arial, Helvetica, sans-serif" font-size="12" font-weight="700">70,998.2</text>
  <text x="248" y="450" fill="#F4F7FB" font-family="Arial, Helvetica, sans-serif" font-size="28" font-weight="700">BTCUSDT</text>
  <text x="248" y="478" fill="#35C5FF" font-family="Arial, Helvetica, sans-serif" font-size="16" font-weight="700">多 0.84 BTC</text>
  <text x="248" y="502" fill="#98A4AE" font-family="Arial, Helvetica, sans-serif" font-size="14">开仓价 70,420.30</text>
  <text x="248" y="524" fill="#0ECB81" font-family="Arial, Helvetica, sans-serif" font-size="18" font-weight="700">未实现收益 +482.16 USDT</text>
  <text x="28" y="534" fill="#98A4AE" font-family="Arial, Helvetica, sans-serif" font-size="18">热门榜  涨幅榜  新币榜  衍生品</text>
  <rect x="28" y="560" width="384" height="86" rx="18" fill="rgba(255,255,255,0.03)" stroke="rgba(255,255,255,0.08)"/>
  <text x="48" y="594" fill="#F4F7FB" font-family="Arial, Helvetica, sans-serif" font-size="18" font-weight="700">BTCUSDT 永续</text>
  <text x="48" y="622" fill="#98A4AE" font-family="Arial, Helvetica, sans-serif" font-size="16">最新价 70,995.20</text>
  <text x="300" y="594" fill="#35C5FF" font-family="Arial, Helvetica, sans-serif" font-size="18" font-weight="700">+0.42%</text>
  <rect x="334" y="610" width="54" height="24" rx="8" fill="#F3F4F6"/>
  <text x="349" y="627" fill="#0C0E12" font-family="Arial, Helvetica, sans-serif" font-size="14" font-weight="700">交易</text>
  <g opacity="0.86">
    <rect x="24" y="678" width="52" height="52" rx="16" fill="rgba(255,255,255,0.06)"/>
    <rect x="106" y="678" width="52" height="52" rx="16" fill="rgba(255,255,255,0.06)"/>
    <rect x="188" y="678" width="52" height="52" rx="16" fill="rgba(41,182,246,0.16)"/>
    <rect x="270" y="678" width="52" height="52" rx="16" fill="rgba(255,255,255,0.06)"/>
    <rect x="352" y="678" width="52" height="52" rx="16" fill="rgba(255,255,255,0.06)"/>
  </g>
  <path d="M38 704L50 694L62 704" stroke="#69727C" stroke-width="3" stroke-linecap="round" stroke-linejoin="round"/>
  <path d="M42 703V712H58V703" stroke="#69727C" stroke-width="3" stroke-linecap="round" stroke-linejoin="round"/>
  <path d="M122 712V702" stroke="#69727C" stroke-width="3" stroke-linecap="round"/>
  <path d="M132 712V696" stroke="#69727C" stroke-width="3" stroke-linecap="round"/>
  <path d="M142 712V700" stroke="#69727C" stroke-width="3" stroke-linecap="round"/>
  <path d="M202 700H226" stroke="#D9F8FF" stroke-width="3" stroke-linecap="round"/>
  <path d="M221 695L226 700L221 705" stroke="#D9F8FF" stroke-width="3" stroke-linecap="round" stroke-linejoin="round"/>
  <path d="M226 710H202" stroke="#D9F8FF" stroke-width="3" stroke-linecap="round"/>
  <path d="M207 705L202 710L207 715" stroke="#D9F8FF" stroke-width="3" stroke-linecap="round" stroke-linejoin="round"/>
  <path d="M286 695H306" stroke="#69727C" stroke-width="3" stroke-linecap="round"/>
  <path d="M286 704H306" stroke="#69727C" stroke-width="3" stroke-linecap="round"/>
  <path d="M286 713H300" stroke="#69727C" stroke-width="3" stroke-linecap="round"/>
  <rect x="366" y="696" width="24" height="18" rx="5" stroke="#69727C" stroke-width="3"/>
  <path d="M374 696V692C374 689.791 375.791 688 378 688C380.209 688 382 689.791 382 692V696" stroke="#69727C" stroke-width="3" stroke-linecap="round"/>
  <text x="50" y="746" fill="#69727C" font-family="Arial, Helvetica, sans-serif" font-size="16" text-anchor="middle">首页</text>
  <text x="132" y="746" fill="#69727C" font-family="Arial, Helvetica, sans-serif" font-size="16" text-anchor="middle">行情</text>
  <text x="214" y="746" fill="#D9F8FF" font-family="Arial, Helvetica, sans-serif" font-size="16" text-anchor="middle">交易</text>
  <text x="296" y="746" fill="#69727C" font-family="Arial, Helvetica, sans-serif" font-size="16" text-anchor="middle">合约</text>
  <text x="378" y="746" fill="#69727C" font-family="Arial, Helvetica, sans-serif" font-size="16" text-anchor="middle">资产</text>
</svg>