<svg width="440" height="760" viewBox="0 0 440 760" fill="none" xmlns="http://www.w3.org/2000/svg">
  <rect width="440" height="760" rx="44" fill="#0F1012" stroke="rgba(255,255,255,0.24)"/>
  <rect x="162" y="18" width="116" height="10" rx="5" fill="rgba(255,255,255,0.2)"/>
  <circle cx="52" cy="64" r="12" fill="rgba(255,255,255,0.08)"/>
  <rect x="76" y="48" width="182" height="32" rx="12" fill="rgba(255,255,255,0.06)"/>
  <rect x="274" y="48" width="120" height="32" rx="12" fill="rgba(240,185,11,0.12)"/>
  <text x="306" y="69" fill="#FFF0B5" font-family="Arial, Helvetica, sans-serif" font-size="16" font-weight="700">钱包资产</text>
  <rect x="28" y="106" width="384" height="126" rx="22" fill="rgba(255,255,255,0.03)" stroke="rgba(255,255,255,0.08)"/>
  <text x="48" y="142" fill="#98A4AE" font-family="Arial, Helvetica, sans-serif" font-size="18">总资产估值</text>
  <text x="48" y="192" fill="#F4F7FB" font-family="Arial, Helvetica, sans-serif" font-size="40" font-weight="700">42,876.55</text>
  <text x="230" y="192" fill="#F4F7FB" font-family="Arial, Helvetica, sans-serif" font-size="20" font-weight="700">USDT</text>
  <text x="48" y="220" fill="#F0B90B" font-family="Arial, Helvetica, sans-serif" font-size="16" font-weight="700">多链资产 · 统一管理</text>
  <rect x="286" y="132" width="48" height="28" rx="10" fill="rgba(255,255,255,0.06)"/>
  <rect x="342" y="132" width="46" height="28" rx="10" fill="#F3F4F6"/>
  <text x="297" y="151" fill="#F4F7FB" font-family="Arial, Helvetica, sans-serif" font-size="13" font-weight="700">发送</text>
  <text x="353" y="151" fill="#0C0E12" font-family="Arial, Helvetica, sans-serif" font-size="13" font-weight="700">收款</text>
  <rect x="48" y="258" width="164" height="184" rx="22" fill="#FFFFFF"/>
  <rect x="74" y="284" width="112" height="112" rx="12" fill="#FFFFFF"/>
  <path d="M92 302H110V320H92V302Z" fill="#0C0E12"/>
  <path d="M114 302H122V310H114V302Z" fill="#0C0E12"/>
  <path d="M126 302H144V320H126V302Z" fill="#0C0E12"/>
  <path d="M148 302H166V320H148V302Z" fill="#0C0E12"/>
  <path d="M92 324H100V332H92V324Z" fill="#0C0E12"/>
  <path d="M104 324H122V342H104V324Z" fill="#0C0E12"/>
  <path d="M126 324H134V332H126V324Z" fill="#0C0E12"/>
  <path d="M138 324H166V352H138V324Z" fill="#0C0E12"/>
  <path d="M92 346H120V374H92V346Z" fill="#0C0E12"/>
  <path d="M124 346H132V354H124V346Z" fill="#0C0E12"/>
  <path d="M136 346H166V376H136V346Z" fill="#0C0E12"/>
  <path d="M92 378H100V386H92V378Z" fill="#0C0E12"/>
  <path d="M104 378H122V396H104V378Z" fill="#0C0E12"/>
  <path d="M126 378H166V418H126V378Z" fill="#0C0E12"/>
  <text x="74" y="418" fill="#0C0E12" font-family="Arial, Helvetica, sans-serif" font-size="16" font-weight="700">USDT 收款</text>
  <text x="74" y="438" fill="#69727C" font-family="Arial, Helvetica, sans-serif" font-size="12">ERC20 · 0x3A2C...19FD</text>
  <rect x="228" y="258" width="184" height="82" rx="18" fill="rgba(255,255,255,0.03)" stroke="rgba(255,255,255,0.08)"/>
  <rect x="228" y="356" width="184" height="82" rx="18" fill="rgba(255,255,255,0.03)" stroke="rgba(255,255,255,0.08)"/>
  <rect x="228" y="454" width="184" height="82" rx="18" fill="rgba(255,255,255,0.03)" stroke="rgba(255,255,255,0.08)"/>
  <text x="248" y="290" fill="#98A4AE" font-family="Arial, Helvetica, sans-serif" font-size="16">多链资产</text>
  <text x="248" y="318" fill="#F4F7FB" font-family="Arial, Helvetica, sans-serif" font-size="18" font-weight="700">BTC / ETH / USDT</text>
  <text x="248" y="334" fill="#69727C" font-family="Arial, Helvetica, sans-serif" font-size="12">12 条链 · 38 个代币</text>
  <text x="248" y="388" fill="#98A4AE" font-family="Arial, Helvetica, sans-serif" font-size="16">转账记录</text>
  <text x="248" y="416" fill="#F4F7FB" font-family="Arial, Helvetica, sans-serif" font-size="18" font-weight="700">最近 24 小时 12 笔</text>
  <text x="248" y="432" fill="#69727C" font-family="Arial, Helvetica, sans-serif" font-size="12">2 笔确认中 · 1 笔跨链中</text>
  <text x="248" y="486" fill="#98A4AE" font-family="Arial, Helvetica, sans-serif" font-size="16">地址白名单</text>
  <text x="248" y="514" fill="#F4F7FB" font-family="Arial, Helvetica, sans-serif" font-size="18" font-weight="700">安全授权已开启</text>
  <text x="248" y="530" fill="#69727C" font-family="Arial, Helvetica, sans-serif" font-size="12">风控提醒 · 新设备验证已开启</text>
  <rect x="28" y="566" width="384" height="98" rx="20" fill="rgba(240,185,11,0.08)" stroke="rgba(255,255,255,0.08)"/>
  <text x="48" y="604" fill="#F4F7FB" font-family="Arial, Helvetica, sans-serif" font-size="18" font-weight="700">ETH Mainnet</text>
  <text x="48" y="632" fill="#98A4AE" font-family="Arial, Helvetica, sans-serif" font-size="16">0x3A2C...19FD</text>
  <text x="302" y="604" fill="#F0B90B" font-family="Arial, Helvetica, sans-serif" font-size="18" font-weight="700">已连接</text>
  <text x="302" y="632" fill="#69727C" font-family="Arial, Helvetica, sans-serif" font-size="14">Gas 低 · 可立即签名</text>
  <g opacity="0.86">
    <rect x="24" y="678" width="52" height="52" rx="16" fill="rgba(255,255,255,0.06)"/>
    <rect x="106" y="678" width="52" height="52" rx="16" fill="rgba(255,255,255,0.06)"/>
    <rect x="188" y="678" width="52" height="52" rx="16" fill="rgba(255,255,255,0.06)"/>
    <rect x="270" y="678" width="52" height="52" rx="16" fill="rgba(255,255,255,0.06)"/>
    <rect x="352" y="678" width="52" height="52" rx="16" fill="rgba(240,185,11,0.18)"/>
  </g>
  <path d="M38 704L50 694L62 704" stroke="#69727C" stroke-width="3" stroke-linecap="round" stroke-linejoin="round"/>
  <path d="M42 703V712H58V703" stroke="#69727C" stroke-width="3" stroke-linecap="round" stroke-linejoin="round"/>
  <path d="M122 712V702" stroke="#69727C" stroke-width="3" stroke-linecap="round"/>
  <path d="M132 712V696" stroke="#69727C" stroke-width="3" stroke-linecap="round"/>
  <path d="M142 712V700" stroke="#69727C" stroke-width="3" stroke-linecap="round"/>
  <path d="M202 700H226" stroke="#69727C" stroke-width="3" stroke-linecap="round"/>
  <path d="M221 695L226 700L221 705" stroke="#69727C" stroke-width="3" stroke-linecap="round" stroke-linejoin="round"/>
  <path d="M226 710H202" stroke="#69727C" stroke-width="3" stroke-linecap="round"/>
  <path d="M207 705L202 710L207 715" stroke="#69727C" stroke-width="3" stroke-linecap="round" stroke-linejoin="round"/>
  <path d="M286 694V712" stroke="#69727C" stroke-width="3" stroke-linecap="round"/>
  <path d="M296 700V712" stroke="#69727C" stroke-width="3" stroke-linecap="round"/>
  <path d="M306 696V712" stroke="#69727C" stroke-width="3" stroke-linecap="round"/>
  <rect x="366" y="696" width="24" height="18" rx="5" stroke="#FFF0B5" stroke-width="3"/>
  <path d="M374 696V692C374 689.791 375.791 688 378 688C380.209 688 382 689.791 382 692V696" stroke="#FFF0B5" stroke-width="3" stroke-linecap="round"/>
  <text x="50" y="746" fill="#69727C" font-family="Arial, Helvetica, sans-serif" font-size="16" text-anchor="middle">首页</text>
  <text x="132" y="746" fill="#69727C" font-family="Arial, Helvetica, sans-serif" font-size="16" text-anchor="middle">行情</text>
  <text x="214" y="746" fill="#69727C" font-family="Arial, Helvetica, sans-serif" font-size="16" text-anchor="middle">交易</text>
  <text x="296" y="746" fill="#69727C" font-family="Arial, Helvetica, sans-serif" font-size="16" text-anchor="middle">记录</text>
  <text x="378" y="746" fill="#FFF0B5" font-family="Arial, Helvetica, sans-serif" font-size="16" text-anchor="middle">钱包</text>
</svg>